<?xml version="1.0" encoding="UTF-8" standalone="no"?>
<!DOCTYPE svg PUBLIC "-//W3C//DTD SVG 1.1//EN" "http://www.w3.org/Graphics/SVG/1.1/DTD/svg11.dtd">
<svg width="100%" height="100%" viewBox="0 0 513 513" version="1.1" xmlns="http://www.w3.org/2000/svg" xmlns:xlink="http://www.w3.org/1999/xlink" xml:space="preserve" xmlns:serif="http://www.serif.com/" style="fill-rule:evenodd;clip-rule:evenodd;stroke-linejoin:round;stroke-miterlimit:2;">
    <g transform="matrix(1,0,0,1,-1222,-254)">
        <g transform="matrix(0.5,0,0,0.5,660.602,254.488)">
            <rect x="1124" y="0" width="1024" height="1024" style="fill:none;"/>
            <g transform="matrix(1.33205,0,0,1.33111,-542.751,-170.383)">
                <g transform="matrix(1,0,0,1,-98.6016,-20.1583)">
                    <path d="M2041.17,148.158L1373.69,148.158C1360.95,148.158 1350.6,158.506 1350.6,171.251L1350.6,893.066C1350.6,905.811 1360.95,916.158 1373.69,916.158L2095.51,916.158C2104.07,916.158 2111.55,911.487 2115.54,904.556L2115.74,904.206C2117.56,900.903 2118.6,897.105 2118.6,893.066L2118.6,225.589C2089.54,319.541 2043.26,456.654 1990.6,565.919L1990.6,788.158L1478.6,788.158L1478.6,276.158L1700.84,276.158C1810.13,223.487 1947.25,177.211 2041.17,148.158Z" style="fill:rgb(245,148,11);"/>
                </g>
                <g transform="matrix(1.6758,1.6758,-1.38046,1.38046,-109.243,-3105.4)">
                    <path d="M1600.02,423.103C1600.02,423.103 1510.6,610.966 1510.6,691.479C1510.6,751.39 1550.67,800.03 1600.02,800.03C1649.37,800.03 1689.44,751.39 1689.44,691.479C1689.44,610.966 1600.02,423.103 1600.02,423.103Z" style="fill:rgb(245,148,11);"/>
                </g>
            </g>
        </g>
    </g>
</svg>
